<svg xmlns="http://www.w3.org/2000/svg" viewBox="0 0 900 1200" fill="none">
  <rect width="900" height="1200" fill="#F3E9DE"/>
  <rect x="96" y="112" width="708" height="976" rx="48" fill="#FBF8F3"/>
  <path d="M450 248C516.274 248 570 194.274 570 128H626C626 214.156 556.156 284 470 284H430C343.844 284 274 214.156 274 128H330C330 194.274 383.726 248 450 248Z" fill="#A67C52"/>
  <path d="M352 326L548 326L622 1012C568.15 1049.31 510.502 1068 450 1068C389.498 1068 331.85 1049.31 278 1012L352 326Z" fill="#CDA67E"/>
  <path d="M352 326C380 428 430 510 450 536C470 510 520 428 548 326H352Z" fill="#E6CDB2"/>
  <circle cx="450" cy="650" r="122" fill="#F8EFE5"/>
  <path d="M450 586C485.346 586 514 614.654 514 650C514 685.346 485.346 714 450 714C414.654 714 386 685.346 386 650C386 614.654 414.654 586 450 586Z" fill="#B88A63"/>
</svg>
