<svg xmlns="http://www.w3.org/2000/svg" viewBox="0 0 900 1200" fill="none">
  <rect width="900" height="1200" fill="#F4EBE2"/>
  <path d="M120 188H780V1012H120V188Z" fill="#E8D8C6"/>
  <path d="M200 268C280 218 360 218 440 268C520 318 600 318 700 248" stroke="#A07450" stroke-width="18" stroke-linecap="round"/>
  <path d="M200 458C280 408 360 408 440 458C520 508 600 508 700 438" stroke="#A07450" stroke-width="18" stroke-linecap="round"/>
  <path d="M200 648C280 598 360 598 440 648C520 698 600 698 700 628" stroke="#A07450" stroke-width="18" stroke-linecap="round"/>
  <path d="M200 838C280 788 360 788 440 838C520 888 600 888 700 818" stroke="#A07450" stroke-width="18" stroke-linecap="round"/>
</svg>
